<svg width="64" height="64" viewBox="0 0 64 64" fill="none" xmlns="http://www.w3.org/2000/svg">
<rect width="64" height="64" rx="16" fill="#E55C2E"/>
<path d="M12.84 51.5799H21.16V25.7399H12.84V51.5799ZM34.48 51.5799V36.5799C34.48 33.3799 36.44 31.5799 39.12 31.5799C41.84 31.5799 43.68 33.4599 43.68 37.4199V51.5799H52V36.5799C52 32.8999 51.08 30.0199 49.24 27.9799C47.4 25.9399 45 24.8999 42 24.8999C38.92 24.8999 36.44 26.3799 34.48 29.2999L34.24 25.7399H26.04L26.16 31.5799V51.5799H34.48ZM16.96 21.5799C20 21.5799 22 19.5799 22 16.9799C21.96 14.3799 20.04 12.4199 17.04 12.4199C14 12.4199 12 14.3799 12 16.9799C12 19.5799 14 21.5799 16.92 21.5799H16.96Z" fill="white"/>
</svg>
