<svg width="64" height="64" viewBox="0 0 64 64" fill="none" xmlns="http://www.w3.org/2000/svg">
<rect width="64" height="64" rx="16" fill="#E55C2E"/>
<path d="M42 27.84C42.56 29.12 42.84 30.52 42.84 32C42.84 35 41.76 37.56 39.64 39.68C37.52 41.8 35 42.84 32 42.84C29 42.84 26.44 41.8 24.32 39.68C22.2 37.56 21.16 35 21.16 32C21.16 30.52 21.44 29.12 22 27.84H12V46.16C12 47.76 12.56 49.12 13.72 50.28C14.88 51.44 16.24 52 17.84 52H46.16C47.76 52 49.12 51.44 50.28 50.28C51.44 49.12 52 47.76 52 46.16V27.84H42ZM32 39.52C34.08 39.52 35.84 38.8 37.28 37.32C38.76 35.84 39.48 34.08 39.48 32C39.48 29.92 38.76 28.16 37.28 26.72C35.84 25.24 34.08 24.52 32 24.52C29.92 24.52 28.16 25.24 26.68 26.72C25.2 28.16 24.48 29.92 24.48 32C24.48 34.12 25.2 35.88 26.64 37.36C28.12 38.8 29.88 39.52 32 39.52ZM52 17.84C52 16.24 51.44 14.88 50.28 13.72C49.12 12.56 47.76 12 46.16 12H17.84C16.24 12 14.88 12.56 13.72 13.72C12.56 14.88 12 16.24 12 17.84V24.52H24.16C26.32 22.28 28.92 21.16 32 21.16C35.08 21.16 37.68 22.28 39.84 24.52H52V17.84Z" fill="white"/>
</svg>
