<svg width="64" height="64" viewBox="0 0 64 64" fill="none" xmlns="http://www.w3.org/2000/svg">
<rect width="64" height="64" rx="16" fill="#E55C2E"/>
<path d="M52 19.58C50.44 20.26 48.84 20.7 47.28 20.9C49.08 19.82 50.28 18.3 50.88 16.34C49.24 17.3 47.52 17.98 45.72 18.34C44.04 16.62 42.04 15.74 39.68 15.74C37.4 15.74 35.44 16.54 33.84 18.18C32.28 19.78 31.48 21.7 31.48 23.94C31.48 24.7 31.56 25.34 31.68 25.86C24.96 25.5 18.92 22.42 14.76 17.42C14.04 18.74 13.68 20.06 13.68 21.42C13.68 24.3 14.88 26.58 17.32 28.22C16 28.18 14.8 27.86 13.64 27.18V27.3C13.64 29.26 14.24 31.02 15.48 32.54C16.72 34.02 18.32 34.98 20.2 35.34C19.48 35.54 18.76 35.62 18 35.62C17.52 35.62 17 35.58 16.48 35.46C17 37.1 17.96 38.46 19.36 39.54C20.76 40.62 22.36 41.14 24.12 41.18C20.88 43.78 17.52 45.06 13.96 45.06C13.28 45.06 12.64 45.02 12 44.94C15.48 47.14 19.68 48.26 24.6 48.26C30.48 48.26 35.72 46.22 39.36 43.18C41.16 41.62 42.72 39.86 44.04 37.82C46.72 33.78 47.92 29.3 47.92 24.94V23.86C49.52 22.7 50.88 21.26 52 19.58Z" fill="white"/>
</svg>
