<svg width="160" height="73" viewBox="0 0 160 73" fill="none" xmlns="http://www.w3.org/2000/svg">
<g clip-path="url(#clip0)">
<path d="M127.815 0.201777C126.601 0.0864758 125.374 0.0288253 124.174 0.0288253C114.466 0.0288253 105.972 3.67522 98.9304 10.8671C93.5543 16.3583 91.3671 22.0081 90.8027 23.6511L94.3868 27.2543C98.4647 15.0324 110.191 6.6154 123.384 6.6154C132.288 6.6154 140.726 10.4347 146.54 17.0934C151.337 22.3684 153.976 29.2721 153.976 36.4928C153.976 52.2314 141.431 65.0442 126.023 65.0442C119.786 65.0442 113.874 62.9832 108.949 59.0918C107.552 58.0973 106.169 56.9011 104.857 55.5751C101.329 51.972 97.8015 48.3544 94.2739 44.7512C83.3523 33.567 72.0497 21.9937 60.8459 10.7086C53.847 3.60316 45.55 0 36.2088 0C34.0781 0 31.8486 0.187364 29.6192 0.562093C20.1086 2.1619 11.8539 7.50898 6.33667 15.5945C0.833543 23.68 -1.18427 33.4373 0.664217 43.0794C3.38756 57.3335 11.5576 66.7449 24.9627 71.0543C28.9701 72.3514 32.9351 73 36.7168 73C45.7052 73 53.7906 69.4113 60.7189 62.3202C66.476 56.4399 68.6208 50.9487 69.157 49.3633L65.8128 45.9187C61.7207 58.1117 49.9949 66.5143 36.8297 66.5143C24.4829 66.5143 13.4343 59.2648 8.66492 48.0661C7.07043 44.4197 6.26612 40.5139 6.26612 36.4784C6.26612 20.7398 18.8104 7.92695 34.2192 7.92695C40.95 7.92695 47.4549 10.4059 52.5348 14.9027C53.3673 15.5801 54.1716 16.3151 54.9336 17.079C58.0379 20.2498 61.1422 23.4205 64.2465 26.6057C75.5915 38.2223 87.3315 50.228 98.9445 61.9599C106.099 69.1951 114.452 72.8703 123.737 72.8703C126.361 72.8703 129.099 72.5676 131.865 71.9911C150.462 68.0709 162.611 49.7812 159.521 30.3674C156.953 14.2829 143.633 1.5998 127.815 0.201777Z" fill="#E55C2E"/>
</g>
<defs>
<clipPath id="clip0">
<rect width="160" height="73" fill="white"/>
</clipPath>
</defs>
</svg>
