<svg width="162" height="23" viewBox="0 0 162 23" fill="none" xmlns="http://www.w3.org/2000/svg">
<path d="M11.88 1.032V12.624C11.88 14.4 11.392 15.768 10.416 16.728C9.456 17.688 8.12 18.168 6.408 18.168C4.552 18.168 3.08 17.648 1.992 16.608C0.904 15.552 0.36 14.04 0.36 12.072H4.416C4.416 13.656 5.016 14.448 6.216 14.448C7.256 14.448 7.776 13.84 7.776 12.624V1.032H11.88ZM19.8919 4.296V7.848H25.6279V10.944H19.8919V14.712H26.3479V18H15.7879V1.032H26.3479V4.296H19.8919ZM44.9505 18H40.8465L33.9825 7.584V18H29.8785V1.032H33.9825L40.8465 11.544V1.032H44.9505V18ZM63.5527 18.936V22.944H48.6967V18.936H63.5527ZM75.0741 0.863999C77.2021 0.863999 78.9541 1.384 80.3301 2.424C81.7061 3.464 82.5621 4.872 82.8981 6.648H78.5541C78.2661 6.04 77.8261 5.56 77.2341 5.208C76.6421 4.84 75.9301 4.656 75.0981 4.656C73.8021 4.656 72.7621 5.096 71.9781 5.976C71.1941 6.84 70.8021 8.016 70.8021 9.504C70.8021 11.12 71.2101 12.36 72.0261 13.224C72.8581 14.088 74.0341 14.52 75.5541 14.52C76.5301 14.52 77.3861 14.256 78.1221 13.728C78.8581 13.184 79.3781 12.416 79.6821 11.424H74.4981V8.472H83.1141V12.528C82.7941 13.52 82.2821 14.44 81.5781 15.288C80.8741 16.136 79.9701 16.824 78.8661 17.352C77.7781 17.88 76.5301 18.144 75.1221 18.144C73.4101 18.144 71.9141 17.784 70.6341 17.064C69.3541 16.328 68.3621 15.304 67.6581 13.992C66.9701 12.68 66.6261 11.184 66.6261 9.504C66.6261 7.824 66.9701 6.328 67.6581 5.016C68.3621 3.704 69.3461 2.688 70.6101 1.968C71.8901 1.232 73.3781 0.863999 75.0741 0.863999ZM95.3233 18L91.6513 11.592H90.7153V18H86.6113V1.032H93.6193C94.9633 1.032 96.0993 1.264 97.0273 1.728C97.9553 2.192 98.6513 2.832 99.1153 3.648C99.5793 4.448 99.8113 5.368 99.8113 6.408C99.8113 7.64 99.4673 8.688 98.7793 9.552C98.1073 10.416 97.1233 11.008 95.8273 11.328L99.8593 18H95.3233ZM90.7153 8.784H93.2593C94.0753 8.784 94.6753 8.608 95.0593 8.256C95.4433 7.888 95.6353 7.352 95.6353 6.648C95.6353 5.976 95.4353 5.448 95.0353 5.064C94.6513 4.68 94.0593 4.488 93.2593 4.488H90.7153V8.784ZM113.581 14.904H107.221L106.165 18H101.845L108.061 1.152H112.789L119.005 18H114.637L113.581 14.904ZM112.525 11.784L110.413 5.544L108.277 11.784H112.525ZM125.904 4.296V7.848H131.64V10.944H125.904V14.712H132.36V18H121.8V1.032H132.36V4.296H125.904ZM146.955 1.032V4.296H139.995V8.016H145.371V11.136H139.995V18H135.891V1.032H146.955ZM161.327 1.032V4.296H154.367V8.016H159.743V11.136H154.367V18H150.263V1.032H161.327Z" fill="#2E2929"/>
</svg>
